<svg xmlns="http://www.w3.org/2000/svg" xmlns:oryx="http://oryx-editor.org" id="_95B0A4E9-8456-4123-8BF9-77472A5971C5" width="553" height="265" xmlns:xlink="http://www.w3.org/1999/xlink" xmlns:svg="http://www.w3.org/2000/svg"><defs><marker id="_BC25D7FB-9952-432E-A299-4A25B854541Fstart" refX="1" refY="5" markerUnits="userSpaceOnUse" markerWidth="17" markerHeight="11" orient="auto" fill="#000000" stroke="#000000"> 	  		<path id="_BC25D7FB-9952-432E-A299-4A25B854541Fconditional" d="M 0 5 L 8 0 L 16 5 L 8 10 L 0 5" fill="white" stroke="#000000" stroke-width="1" display="none"/> 			<path id="_BC25D7FB-9952-432E-A299-4A25B854541Fdefault" d="M 5 0 L 11 10" fill="white" stroke="#000000" stroke-width="1" display="none"/> 	  	</marker><marker id="_BC25D7FB-9952-432E-A299-4A25B854541Fend" refX="15" refY="6" markerUnits="userSpaceOnUse" markerWidth="15" markerHeight="12" orient="auto" fill="#000000" stroke="#000000"> 	  		<path id="_BC25D7FB-9952-432E-A299-4A25B854541Fframe2" d="M 0 1 L 15 6 L 0 11z" fill="#000000" stroke="#000000" stroke-linejoin="round" stroke-width="2"/> 	  	</marker><marker id="_D5BF6C15-5D28-4E0D-A07E-7E5D9CF37B7Astart" refX="1" refY="5" markerUnits="userSpaceOnUse" markerWidth="17" markerHeight="11" orient="auto" fill="#000000" stroke="#000000"> 	  		<path id="_D5BF6C15-5D28-4E0D-A07E-7E5D9CF37B7Aconditional" d="M 0 5 L 8 0 L 16 5 L 8 10 L 0 5" fill="white" stroke="#000000" stroke-width="1" display="none"/> 			<path id="_D5BF6C15-5D28-4E0D-A07E-7E5D9CF37B7Adefault" d="M 5 0 L 11 10" fill="white" stroke="#000000" stroke-width="1" display="none"/> 	  	</marker><marker id="_D5BF6C15-5D28-4E0D-A07E-7E5D9CF37B7Aend" refX="15" refY="6" markerUnits="userSpaceOnUse" markerWidth="15" markerHeight="12" orient="auto" fill="#000000" stroke="#000000"> 	  		<path id="_D5BF6C15-5D28-4E0D-A07E-7E5D9CF37B7Aframe2" d="M 0 1 L 15 6 L 0 11z" fill="#000000" stroke="#000000" stroke-linejoin="round" stroke-width="2"/> 	  	</marker><marker id="_9FFEFFA2-EE50-4858-AB43-7A3B15E75908start" refX="1" refY="5" markerUnits="userSpaceOnUse" markerWidth="17" markerHeight="11" orient="auto" fill="#000000" stroke="#000000"> 	  		<path id="_9FFEFFA2-EE50-4858-AB43-7A3B15E75908conditional" d="M 0 5 L 8 0 L 16 5 L 8 10 L 0 5" fill="white" stroke="#000000" stroke-width="1" display="none"/> 			<path id="_9FFEFFA2-EE50-4858-AB43-7A3B15E75908default" d="M 5 0 L 11 10" fill="white" stroke="#000000" stroke-width="1" display="none"/> 	  	</marker><marker id="_9FFEFFA2-EE50-4858-AB43-7A3B15E75908end" refX="15" refY="6" markerUnits="userSpaceOnUse" markerWidth="15" markerHeight="12" orient="auto" fill="#000000" stroke="#000000"> 	  		<path id="_9FFEFFA2-EE50-4858-AB43-7A3B15E75908frame2" d="M 0 1 L 15 6 L 0 11z" fill="#000000" stroke="#000000" stroke-linejoin="round" stroke-width="2"/> 	  	</marker></defs><g stroke="none" font-family="Verdana, sans-serif" font-size-adjust="none" font-style="normal" font-variant="normal" font-weight="normal" line-heigth="normal" font-size="12"><g class="stencils" transform="translate(15, 16)"><g class="me"/><g class="children"><g id="_18B9899A-7191-4527-939D-57F35243A9F2" bpmn2nodeid="processStartEvent"><g class="stencils" transform="translate(120, 165)"><g class="me"><g pointer-events="fill" id="_18B9899A-7191-4527-939D-57F35243A9F2">        <defs id="_18B9899A-7191-4527-939D-57F35243A9F2__18B9899A-7191-4527-939D-57F35243A9F2_5"> 		<radialGradient id="_18B9899A-7191-4527-939D-57F35243A9F2background" cx="10%" cy="10%" r="100%" fx="10%" fy="10%"> 			<stop offset="0%" stop-color="#ffffff" stop-opacity="1" id="_18B9899A-7191-4527-939D-57F35243A9F2__18B9899A-7191-4527-939D-57F35243A9F2_6"/> 			<stop id="_18B9899A-7191-4527-939D-57F35243A9F2fill_el" offset="100%" stop-color="#9acd32" stop-opacity="1"/> 		</radialGradient> 	</defs> 	     <circle id="_18B9899A-7191-4527-939D-57F35243A9F2bg_frame" cx="15" cy="15" r="15" stroke="#000000" fill="url(#_18B9899A-7191-4527-939D-57F35243A9F2background) white" stroke-width="1" style="stroke-dasharray: 5.5, 3"/>      <circle id="_18B9899A-7191-4527-939D-57F35243A9F2frame" cx="15" cy="15" r="15" stroke="#000000" fill="none" stroke-width="1" display="inherit"/>  	<text font-size="11" id="_18B9899A-7191-4527-939D-57F35243A9F2text_name" x="15" y="32" oryx:align="top center" stroke="black" stroke-width="0pt" letter-spacing="-0.01px" fill="#000000" text-anchor="middle" transform="rotate(0 15 32)" visibility="inherit" oryx:fontSize="11"/>   </g></g><g class="children" style="overflow:hidden"/><g class="edge"/></g><g class="controls"><g class="dockers"/><g class="magnets" transform="translate(120, 165)"><g pointer-events="all" display="none" transform="translate(7, 7)"><circle cx="8" cy="8" r="4" stroke="none" fill="red" fill-opacity="0.3"/></g></g></g></g><g id="_127196DC-A9C9-41D8-A790-84EE0FA84136" bpmn2nodeid="_35A2E905-8EE7-437D-BFE7-F62179FE637B"><g class="stencils" transform="translate(195, 140)"><g class="me"><g pointer-events="fill" oryx:minimumSize="50 40" id="_127196DC-A9C9-41D8-A790-84EE0FA84136">   	<defs id="_127196DC-A9C9-41D8-A790-84EE0FA84136__127196DC-A9C9-41D8-A790-84EE0FA84136_17"> 		<radialGradient id="_127196DC-A9C9-41D8-A790-84EE0FA84136background" cx="10%" cy="10%" r="100%" fx="10%" fy="10%"> 			<stop offset="0%" stop-color="#ffffff" stop-opacity="1" id="_127196DC-A9C9-41D8-A790-84EE0FA84136__127196DC-A9C9-41D8-A790-84EE0FA84136_18"/> 			<stop id="_127196DC-A9C9-41D8-A790-84EE0FA84136fill_el" offset="100%" stop-color="#fafad2" stop-opacity="1"/> 		</radialGradient> 		<radialGradient id="_127196DC-A9C9-41D8-A790-84EE0FA84136borderbackground" cx="10%" cy="10%" r="100%" fx="10%" fy="10%"> 			<stop offset="0%" stop-color="#ffffff" stop-opacity="1" id="_127196DC-A9C9-41D8-A790-84EE0FA84136__127196DC-A9C9-41D8-A790-84EE0FA84136_19"/> 			<stop id="_127196DC-A9C9-41D8-A790-84EE0FA84136fill_border" offset="100%" stop-color="#000000" stop-opacity="1" stroke="#000000"/> 		</radialGradient> 	</defs> 	 	<rect id="_127196DC-A9C9-41D8-A790-84EE0FA84136text_frame" oryx:anchors="bottom top right left" x="1" y="1" width="94" height="79" rx="10" ry="10" stroke="none" stroke-width="0" fill="none"/> 	<rect id="_127196DC-A9C9-41D8-A790-84EE0FA84136bg_frame" oryx:resize="vertical horizontal" x="0" y="0" width="100" height="80" rx="10" ry="10" stroke="#000000" stroke-width="1" fill="url(#_127196DC-A9C9-41D8-A790-84EE0FA84136background) #ffffcc"/> 		<text font-size="12" id="_127196DC-A9C9-41D8-A790-84EE0FA84136text_name" x="50" y="40" oryx:align="middle center" oryx:fittoelem="text_frame" stroke="black" text-anchor="middle" stroke-width="0pt" letter-spacing="-0.01px" fill="#000000" transform="rotate(0 50 40)" visibility="inherit" oryx:fontSize="12"><tspan x="50" y="40" dy="5" id="ext-gen2066">Gather Info</tspan></text>     <g id="_127196DC-A9C9-41D8-A790-84EE0FA84136manualTask" transform="scale(0.7,0.7) translate(8,8)" display="none">     	<path oryx:anchors="top left" id="_127196DC-A9C9-41D8-A790-84EE0FA84136frame" style="opacity:1;fill:none;fill-opacity:1;stroke-width:1" d="M0.5,3.751l4.083-3.25c0,0,11.166,0.083,12.083,0.083s-2.417,2.917-1.5,2.917     s11.667,0,12.584,0c1.166,1.708-0.168,3.167-0.834,3.667s0.875,1.917-1,4.417c-0.75,0.25,0.75,1.875-1.333,3.333     c-1.167,0.583,0.583,1.542-1.25,2.833c-1.167,0-20.833,0.083-20.833,0.083l-2-1.333V3.751z" stroke="#000000"/> 		<path id="_127196DC-A9C9-41D8-A790-84EE0FA84136frame2" oryx:anchors="top left" style="opacity:1;fill:none;stroke-width:2" d="M 13.5 7 L 27 7" stroke="#000000"/> 		<path id="_127196DC-A9C9-41D8-A790-84EE0FA84136frame3" oryx:anchors="top left" style="opacity:1;fill:none;stroke-width:2" d="M 13.5 11 L 26 11" stroke="#000000"/> 		<path id="_127196DC-A9C9-41D8-A790-84EE0FA84136frame4" oryx:anchors="top left" style="opacity:1;fill:none;stroke-width:1.5" d="M 14 14.5 L 25 14.5" stroke="#000000"/> 		<path id="_127196DC-A9C9-41D8-A790-84EE0FA84136frame5" oryx:anchors="top left" style="opacity:1;fill:none;stroke-width:1.5" d="M 8.2 3.1 L 15 3.1" stroke="#000000"/> 	</g> 	 	<g id="_127196DC-A9C9-41D8-A790-84EE0FA84136businessRuleTask" transform="scale(0.7,0.7) translate(8,8)" display="none"> 		<rect id="_127196DC-A9C9-41D8-A790-84EE0FA84136frame6" oryx:anchors="top left" x="0" y="0" width="22" height="4" style="opacity:1;fill:#B3B1B3;fill-opacity:1;" stroke="#000000"/> 		<rect id="_127196DC-A9C9-41D8-A790-84EE0FA84136frame7" oryx:anchors="top left" x="0" y="4" style="opacity:1;fill:none;" width="22" height="12" stroke="#000000"/> 		<path id="_127196DC-A9C9-41D8-A790-84EE0FA84136frame8" oryx:anchors="top left" style="opacity:1;fill:none;" d="M 0 10 L 22 10" stroke="#000000"/> 		<path id="_127196DC-A9C9-41D8-A790-84EE0FA84136frame9" oryx:anchors="top left" style="opacity:1; fill:none;" d="M 7 4 L 7 16" stroke="#000000"/> 	</g> 	 	<g id="_127196DC-A9C9-41D8-A790-84EE0FA84136scriptTask" transform="scale(0.7,0.7) translate(8,8)" display="none"> 		<path oryx:anchors="top left" id="_127196DC-A9C9-41D8-A790-84EE0FA84136frame10" style="opacity:1;fill:none;" stroke="#000000" d="M6.402,0.5h14.5c0,0-5.833,2.833-5.833,5.583s4.417,6,4.417,9.167    s-4.167,5.083-4.167,5.083H0.235c0,0,5-2.667,5-5s-4.583-6.75-4.583-9.25S6.402,0.5,6.402,0.5z"/> 		<path oryx:anchors="top left" id="_127196DC-A9C9-41D8-A790-84EE0FA84136frame11" style="opacity:1;fill:none;stroke-width:1.5" d="M 3.5 4.5 L 13.5 4.5" stroke="#000000"/> 		<path oryx:anchors="top left" id="_127196DC-A9C9-41D8-A790-84EE0FA84136frame12" style="opacity:1;fill:none;stroke-width:1.5" d="M 3.8 8.5 L 13.8 8.5" stroke="#000000"/> 		<path oryx:anchors="top left" id="_127196DC-A9C9-41D8-A790-84EE0FA84136frame13" style="opacity:1;fill:none;stroke-width:1.5" d="M 6.3 12.5 L 16.3 12.5" stroke="#000000"/> 		<path oryx:anchors="top left" id="_127196DC-A9C9-41D8-A790-84EE0FA84136frame14" style="opacity:1;fill:none;stroke-width:1.5" d="M 6.5 16.5 L 16.5 16.5" stroke="#000000"/> 	</g> 	 	<g id="_127196DC-A9C9-41D8-A790-84EE0FA84136userTask" transform="scale(0.7,0.7) translate(8,8)" display="inherit"> 		<path id="_127196DC-A9C9-41D8-A790-84EE0FA84136frame15" oryx:anchors="top left" style="opacity:1;fill:#F4F6F7" stroke="#000000" d="M0.585,24.167h24.083v-7.833c0,0-2.333-3.917-7.083-5.167h-9.25    c-4.417,1.333-7.833,5.75-7.833,5.75L0.585,24.167z"/> 		<path id="_127196DC-A9C9-41D8-A790-84EE0FA84136frame16" oryx:anchors="top left" style="opacity:1;fill:none" d="M 6 20 L 6 24" stroke="#000000"/> 		<path id="_127196DC-A9C9-41D8-A790-84EE0FA84136frame17" oryx:anchors="top left" style="opacity:1;fill:none" d="M 20 20 L 20 24" stroke="#000000"/> 		<circle id="_127196DC-A9C9-41D8-A790-84EE0FA84136frame18" oryx:anchors="top left" fill="black" cx="13.002" cy="5.916" r="5.417" stroke="#000000"/> 		<path id="_127196DC-A9C9-41D8-A790-84EE0FA84136frame19" oryx:anchors="top left" style="opacity:1;fill:#F0EFF0;" stroke="#000000" d="M8.043,7.083c0,0,2.814-2.426,5.376-1.807s4.624-0.693,4.624-0.693    c0.25,1.688,0.042,3.75-1.458,5.584c0,0,1.083,0.75,1.083,1.5s0.125,1.875-1,3s-5.5,1.25-6.75,0S8.668,12.834,8.668,12    s0.583-1.25,1.25-1.917C8.835,9.5,7.419,7.708,8.043,7.083z"/> 	</g> 	 	<g id="_127196DC-A9C9-41D8-A790-84EE0FA84136serviceTask" transform="scale(0.7,0.7) translate(8,8)" display="none"> 		<polygon oryx:anchors="top left" id="_127196DC-A9C9-41D8-A790-84EE0FA84136frame20" style="opacity:1;fill:#ffffff" stroke="#000000" points="15.392,5.064 17.954,2.502 20.347,4.895 17.786,7.455     18.729,9.732 22.353,9.732 22.353,13.115 18.731,13.115 17.788,15.392 20.351,17.955 17.958,20.347 15.397,17.786 13.12,18.729     13.12,22.353 9.737,22.353 9.737,18.731 7.46,17.788 4.897,20.35 2.506,17.958 5.066,15.397 4.124,13.12 0.5,13.12 0.5,9.737     4.121,9.737 5.065,7.461 2.503,4.898 4.895,2.506 7.455,5.066 9.732,4.125 9.732,0.5 13.116,0.5 13.116,4.121 "/> 		<circle oryx:anchors="top left" id="_127196DC-A9C9-41D8-A790-84EE0FA84136frame21" style="opacity:1;fill:none" stroke="#000000" cx="11.427" cy="11.426" r="3.714"/> 		<polygon oryx:anchors="top left" id="_127196DC-A9C9-41D8-A790-84EE0FA84136frame22" style="opacity:1;fill:#ffffff" stroke="#000000" points="21.392,11.064 23.954,8.502 26.347,10.895 23.786,13.455     24.729,15.732 28.353,15.732 28.353,19.115 24.731,19.115 23.788,21.392 26.351,23.955 23.958,26.347 21.397,23.786 19.12,24.729     19.12,28.353 15.737,28.353 15.737,24.731 13.46,23.788 10.897,26.35 8.506,23.958 11.066,21.397 10.124,19.12 6.5,19.12     6.5,15.737 10.121,15.737 11.065,13.461 8.503,10.898 10.895,8.506 13.455,11.066 15.732,10.125 15.732,6.5 19.116,6.5     19.116,10.121 "/> 		<circle oryx:anchors="top left" id="_127196DC-A9C9-41D8-A790-84EE0FA84136frame23" style="opacity:1;fill:none;" stroke="#000000" cx="17.427" cy="17.426" r="3.714"/> 	</g> 	 	<g id="_127196DC-A9C9-41D8-A790-84EE0FA84136sendTask" display="none"> 		<path id="_127196DC-A9C9-41D8-A790-84EE0FA84136stframe24" oryx:anchors="left top" stroke="#FFFFFF" fill="black" stroke-width="1" d="M8,11 L8,21 L24,21 L24,11 L16,17z"/> 		<path id="_127196DC-A9C9-41D8-A790-84EE0FA84136stframe25" oryx:anchors="left top" stroke="#FFFFFF" fill="black" stroke-width="1" d="M7,10 L16,17 L25 10z"/> 	</g> 	 	<g id="_127196DC-A9C9-41D8-A790-84EE0FA84136receiveTask" display="none"> 		<path id="_127196DC-A9C9-41D8-A790-84EE0FA84136frame26" oryx:anchors="left top" stroke="#000000" fill="none" stroke-width="1" d="M8,11 L8,21 L24,21 L24,11z M8,11 L16,17 L24,11"/> 	</g> 	 	<g id="_127196DC-A9C9-41D8-A790-84EE0FA84136none" display="none"/>  	<g id="_127196DC-A9C9-41D8-A790-84EE0FA84136sequential" display="none">         <path oryx:anchors="bottom" fill="none" stroke="#000000" stroke-width="2" d="M46,76h10M46,72h10 M46,68h10" id="_127196DC-A9C9-41D8-A790-84EE0FA84136__127196DC-A9C9-41D8-A790-84EE0FA84136_20"/>     </g>   </g></g><g class="children" style="overflow:hidden"/><g class="edge"/></g><g class="controls"><g class="dockers"/><g class="magnets" transform="translate(195, 140)"><g pointer-events="all" display="none" transform="translate(-7, 12)"><circle cx="8" cy="8" r="4" stroke="none" fill="red" fill-opacity="0.3"/></g><g pointer-events="all" display="none" transform="translate(-7, 32)"><circle cx="8" cy="8" r="4" stroke="none" fill="red" fill-opacity="0.3"/></g><g pointer-events="all" display="none" transform="translate(-7, 52)"><circle cx="8" cy="8" r="4" stroke="none" fill="red" fill-opacity="0.3"/></g><g pointer-events="all" display="none" transform="translate(17, 71)"><circle cx="8" cy="8" r="4" stroke="none" fill="red" fill-opacity="0.3"/></g><g pointer-events="all" display="none" transform="translate(42, 71)"><circle cx="8" cy="8" r="4" stroke="none" fill="red" fill-opacity="0.3"/></g><g pointer-events="all" display="none" transform="translate(67, 71)"><circle cx="8" cy="8" r="4" stroke="none" fill="red" fill-opacity="0.3"/></g><g pointer-events="all" display="none" transform="translate(91, 12)"><circle cx="8" cy="8" r="4" stroke="none" fill="red" fill-opacity="0.3"/></g><g pointer-events="all" display="none" transform="translate(91, 32)"><circle cx="8" cy="8" r="4" stroke="none" fill="red" fill-opacity="0.3"/></g><g pointer-events="all" display="none" transform="translate(91, 52)"><circle cx="8" cy="8" r="4" stroke="none" fill="red" fill-opacity="0.3"/></g><g pointer-events="all" display="none" transform="translate(17, -7)"><circle cx="8" cy="8" r="4" stroke="none" fill="red" fill-opacity="0.3"/></g><g pointer-events="all" display="none" transform="translate(42, -7)"><circle cx="8" cy="8" r="4" stroke="none" fill="red" fill-opacity="0.3"/></g><g pointer-events="all" display="none" transform="translate(67, -7)"><circle cx="8" cy="8" r="4" stroke="none" fill="red" fill-opacity="0.3"/></g><g pointer-events="all" display="none" transform="translate(42, 32)"><circle cx="8" cy="8" r="4" stroke="none" fill="red" fill-opacity="0.3"/></g></g></g></g><g id="_850258CA-3FB2-4AF4-AEBF-8611CDC56863" bpmn2nodeid="_46CDE3C2-393D-441E-89DC-5F4DA0F3CEA0"><g class="stencils" transform="translate(340, 140)"><g class="me"><g pointer-events="fill" oryx:minimumSize="50 40" id="_850258CA-3FB2-4AF4-AEBF-8611CDC56863">   	<defs id="_850258CA-3FB2-4AF4-AEBF-8611CDC56863__850258CA-3FB2-4AF4-AEBF-8611CDC56863_17"> 		<radialGradient id="_850258CA-3FB2-4AF4-AEBF-8611CDC56863background" cx="10%" cy="10%" r="100%" fx="10%" fy="10%"> 			<stop offset="0%" stop-color="#ffffff" stop-opacity="1" id="_850258CA-3FB2-4AF4-AEBF-8611CDC56863__850258CA-3FB2-4AF4-AEBF-8611CDC56863_18"/> 			<stop id="_850258CA-3FB2-4AF4-AEBF-8611CDC56863fill_el" offset="100%" stop-color="#fafad2" stop-opacity="1"/> 		</radialGradient> 		<radialGradient id="_850258CA-3FB2-4AF4-AEBF-8611CDC56863borderbackground" cx="10%" cy="10%" r="100%" fx="10%" fy="10%"> 			<stop offset="0%" stop-color="#ffffff" stop-opacity="1" id="_850258CA-3FB2-4AF4-AEBF-8611CDC56863__850258CA-3FB2-4AF4-AEBF-8611CDC56863_19"/> 			<stop id="_850258CA-3FB2-4AF4-AEBF-8611CDC56863fill_border" offset="100%" stop-color="#000000" stop-opacity="1" stroke="#000000"/> 		</radialGradient> 	</defs> 	 	<rect id="_850258CA-3FB2-4AF4-AEBF-8611CDC56863text_frame" oryx:anchors="bottom top right left" x="1" y="1" width="94" height="79" rx="10" ry="10" stroke="none" stroke-width="0" fill="none"/> 	<rect id="_850258CA-3FB2-4AF4-AEBF-8611CDC56863bg_frame" oryx:resize="vertical horizontal" x="0" y="0" width="100" height="80" rx="10" ry="10" stroke="#000000" stroke-width="1" fill="url(#_850258CA-3FB2-4AF4-AEBF-8611CDC56863background) #ffffcc"/> 		<text font-size="12" id="_850258CA-3FB2-4AF4-AEBF-8611CDC56863text_name" x="50" y="40" oryx:align="middle center" oryx:fittoelem="text_frame" stroke="black" text-anchor="middle" stroke-width="0pt" letter-spacing="-0.01px" fill="#000000" transform="rotate(0 50 40)" visibility="inherit" oryx:fontSize="12"><tspan x="50" y="40" dy="5" id="ext-gen1635">Print stuff</tspan></text>     <g id="_850258CA-3FB2-4AF4-AEBF-8611CDC56863manualTask" transform="scale(0.7,0.7) translate(8,8)" display="none">     	<path oryx:anchors="top left" id="_850258CA-3FB2-4AF4-AEBF-8611CDC56863frame" style="opacity:1;fill:none;fill-opacity:1;stroke-width:1" d="M0.5,3.751l4.083-3.25c0,0,11.166,0.083,12.083,0.083s-2.417,2.917-1.5,2.917     s11.667,0,12.584,0c1.166,1.708-0.168,3.167-0.834,3.667s0.875,1.917-1,4.417c-0.75,0.25,0.75,1.875-1.333,3.333     c-1.167,0.583,0.583,1.542-1.25,2.833c-1.167,0-20.833,0.083-20.833,0.083l-2-1.333V3.751z" stroke="#000000"/> 		<path id="_850258CA-3FB2-4AF4-AEBF-8611CDC56863frame2" oryx:anchors="top left" style="opacity:1;fill:none;stroke-width:2" d="M 13.5 7 L 27 7" stroke="#000000"/> 		<path id="_850258CA-3FB2-4AF4-AEBF-8611CDC56863frame3" oryx:anchors="top left" style="opacity:1;fill:none;stroke-width:2" d="M 13.5 11 L 26 11" stroke="#000000"/> 		<path id="_850258CA-3FB2-4AF4-AEBF-8611CDC56863frame4" oryx:anchors="top left" style="opacity:1;fill:none;stroke-width:1.5" d="M 14 14.5 L 25 14.5" stroke="#000000"/> 		<path id="_850258CA-3FB2-4AF4-AEBF-8611CDC56863frame5" oryx:anchors="top left" style="opacity:1;fill:none;stroke-width:1.5" d="M 8.2 3.1 L 15 3.1" stroke="#000000"/> 	</g> 	 	<g id="_850258CA-3FB2-4AF4-AEBF-8611CDC56863businessRuleTask" transform="scale(0.7,0.7) translate(8,8)" display="none"> 		<rect id="_850258CA-3FB2-4AF4-AEBF-8611CDC56863frame6" oryx:anchors="top left" x="0" y="0" width="22" height="4" style="opacity:1;fill:#B3B1B3;fill-opacity:1;" stroke="#000000"/> 		<rect id="_850258CA-3FB2-4AF4-AEBF-8611CDC56863frame7" oryx:anchors="top left" x="0" y="4" style="opacity:1;fill:none;" width="22" height="12" stroke="#000000"/> 		<path id="_850258CA-3FB2-4AF4-AEBF-8611CDC56863frame8" oryx:anchors="top left" style="opacity:1;fill:none;" d="M 0 10 L 22 10" stroke="#000000"/> 		<path id="_850258CA-3FB2-4AF4-AEBF-8611CDC56863frame9" oryx:anchors="top left" style="opacity:1; fill:none;" d="M 7 4 L 7 16" stroke="#000000"/> 	</g> 	 	<g id="_850258CA-3FB2-4AF4-AEBF-8611CDC56863scriptTask" transform="scale(0.7,0.7) translate(8,8)" display="inherit"> 		<path oryx:anchors="top left" id="_850258CA-3FB2-4AF4-AEBF-8611CDC56863frame10" style="opacity:1;fill:none;" stroke="#000000" d="M6.402,0.5h14.5c0,0-5.833,2.833-5.833,5.583s4.417,6,4.417,9.167    s-4.167,5.083-4.167,5.083H0.235c0,0,5-2.667,5-5s-4.583-6.75-4.583-9.25S6.402,0.5,6.402,0.5z"/> 		<path oryx:anchors="top left" id="_850258CA-3FB2-4AF4-AEBF-8611CDC56863frame11" style="opacity:1;fill:none;stroke-width:1.5" d="M 3.5 4.5 L 13.5 4.5" stroke="#000000"/> 		<path oryx:anchors="top left" id="_850258CA-3FB2-4AF4-AEBF-8611CDC56863frame12" style="opacity:1;fill:none;stroke-width:1.5" d="M 3.8 8.5 L 13.8 8.5" stroke="#000000"/> 		<path oryx:anchors="top left" id="_850258CA-3FB2-4AF4-AEBF-8611CDC56863frame13" style="opacity:1;fill:none;stroke-width:1.5" d="M 6.3 12.5 L 16.3 12.5" stroke="#000000"/> 		<path oryx:anchors="top left" id="_850258CA-3FB2-4AF4-AEBF-8611CDC56863frame14" style="opacity:1;fill:none;stroke-width:1.5" d="M 6.5 16.5 L 16.5 16.5" stroke="#000000"/> 	</g> 	 	<g id="_850258CA-3FB2-4AF4-AEBF-8611CDC56863userTask" transform="scale(0.7,0.7) translate(8,8)" display="none"> 		<path id="_850258CA-3FB2-4AF4-AEBF-8611CDC56863frame15" oryx:anchors="top left" style="opacity:1;fill:#F4F6F7" stroke="#000000" d="M0.585,24.167h24.083v-7.833c0,0-2.333-3.917-7.083-5.167h-9.25    c-4.417,1.333-7.833,5.75-7.833,5.75L0.585,24.167z"/> 		<path id="_850258CA-3FB2-4AF4-AEBF-8611CDC56863frame16" oryx:anchors="top left" style="opacity:1;fill:none" d="M 6 20 L 6 24" stroke="#000000"/> 		<path id="_850258CA-3FB2-4AF4-AEBF-8611CDC56863frame17" oryx:anchors="top left" style="opacity:1;fill:none" d="M 20 20 L 20 24" stroke="#000000"/> 		<circle id="_850258CA-3FB2-4AF4-AEBF-8611CDC56863frame18" oryx:anchors="top left" fill="black" cx="13.002" cy="5.916" r="5.417" stroke="#000000"/> 		<path id="_850258CA-3FB2-4AF4-AEBF-8611CDC56863frame19" oryx:anchors="top left" style="opacity:1;fill:#F0EFF0;" stroke="#000000" d="M8.043,7.083c0,0,2.814-2.426,5.376-1.807s4.624-0.693,4.624-0.693    c0.25,1.688,0.042,3.75-1.458,5.584c0,0,1.083,0.75,1.083,1.5s0.125,1.875-1,3s-5.5,1.25-6.75,0S8.668,12.834,8.668,12    s0.583-1.25,1.25-1.917C8.835,9.5,7.419,7.708,8.043,7.083z"/> 	</g> 	 	<g id="_850258CA-3FB2-4AF4-AEBF-8611CDC56863serviceTask" transform="scale(0.7,0.7) translate(8,8)" display="none"> 		<polygon oryx:anchors="top left" id="_850258CA-3FB2-4AF4-AEBF-8611CDC56863frame20" style="opacity:1;fill:#ffffff" stroke="#000000" points="15.392,5.064 17.954,2.502 20.347,4.895 17.786,7.455     18.729,9.732 22.353,9.732 22.353,13.115 18.731,13.115 17.788,15.392 20.351,17.955 17.958,20.347 15.397,17.786 13.12,18.729     13.12,22.353 9.737,22.353 9.737,18.731 7.46,17.788 4.897,20.35 2.506,17.958 5.066,15.397 4.124,13.12 0.5,13.12 0.5,9.737     4.121,9.737 5.065,7.461 2.503,4.898 4.895,2.506 7.455,5.066 9.732,4.125 9.732,0.5 13.116,0.5 13.116,4.121 "/> 		<circle oryx:anchors="top left" id="_850258CA-3FB2-4AF4-AEBF-8611CDC56863frame21" style="opacity:1;fill:none" stroke="#000000" cx="11.427" cy="11.426" r="3.714"/> 		<polygon oryx:anchors="top left" id="_850258CA-3FB2-4AF4-AEBF-8611CDC56863frame22" style="opacity:1;fill:#ffffff" stroke="#000000" points="21.392,11.064 23.954,8.502 26.347,10.895 23.786,13.455     24.729,15.732 28.353,15.732 28.353,19.115 24.731,19.115 23.788,21.392 26.351,23.955 23.958,26.347 21.397,23.786 19.12,24.729     19.12,28.353 15.737,28.353 15.737,24.731 13.46,23.788 10.897,26.35 8.506,23.958 11.066,21.397 10.124,19.12 6.5,19.12     6.5,15.737 10.121,15.737 11.065,13.461 8.503,10.898 10.895,8.506 13.455,11.066 15.732,10.125 15.732,6.5 19.116,6.5     19.116,10.121 "/> 		<circle oryx:anchors="top left" id="_850258CA-3FB2-4AF4-AEBF-8611CDC56863frame23" style="opacity:1;fill:none;" stroke="#000000" cx="17.427" cy="17.426" r="3.714"/> 	</g> 	 	<g id="_850258CA-3FB2-4AF4-AEBF-8611CDC56863sendTask" display="none"> 		<path id="_850258CA-3FB2-4AF4-AEBF-8611CDC56863stframe24" oryx:anchors="left top" stroke="#FFFFFF" fill="black" stroke-width="1" d="M8,11 L8,21 L24,21 L24,11 L16,17z"/> 		<path id="_850258CA-3FB2-4AF4-AEBF-8611CDC56863stframe25" oryx:anchors="left top" stroke="#FFFFFF" fill="black" stroke-width="1" d="M7,10 L16,17 L25 10z"/> 	</g> 	 	<g id="_850258CA-3FB2-4AF4-AEBF-8611CDC56863receiveTask" display="none"> 		<path id="_850258CA-3FB2-4AF4-AEBF-8611CDC56863frame26" oryx:anchors="left top" stroke="#000000" fill="none" stroke-width="1" d="M8,11 L8,21 L24,21 L24,11z M8,11 L16,17 L24,11"/> 	</g> 	 	<g id="_850258CA-3FB2-4AF4-AEBF-8611CDC56863none" display="none"/>  	<g id="_850258CA-3FB2-4AF4-AEBF-8611CDC56863sequential" display="none">         <path oryx:anchors="bottom" fill="none" stroke="#000000" stroke-width="2" d="M46,76h10M46,72h10 M46,68h10" id="_850258CA-3FB2-4AF4-AEBF-8611CDC56863__850258CA-3FB2-4AF4-AEBF-8611CDC56863_20"/>     </g>   </g></g><g class="children" style="overflow:hidden"/><g class="edge"/></g><g class="controls"><g class="dockers"/><g class="magnets" transform="translate(340, 140)"><g pointer-events="all" display="none" transform="translate(-7, 12)"><circle cx="8" cy="8" r="4" stroke="none" fill="red" fill-opacity="0.3"/></g><g pointer-events="all" display="none" transform="translate(-7, 32)"><circle cx="8" cy="8" r="4" stroke="none" fill="red" fill-opacity="0.3"/></g><g pointer-events="all" display="none" transform="translate(-7, 52)"><circle cx="8" cy="8" r="4" stroke="none" fill="red" fill-opacity="0.3"/></g><g pointer-events="all" display="none" transform="translate(17, 71)"><circle cx="8" cy="8" r="4" stroke="none" fill="red" fill-opacity="0.3"/></g><g pointer-events="all" display="none" transform="translate(42, 71)"><circle cx="8" cy="8" r="4" stroke="none" fill="red" fill-opacity="0.3"/></g><g pointer-events="all" display="none" transform="translate(67, 71)"><circle cx="8" cy="8" r="4" stroke="none" fill="red" fill-opacity="0.3"/></g><g pointer-events="all" display="none" transform="translate(91, 12)"><circle cx="8" cy="8" r="4" stroke="none" fill="red" fill-opacity="0.3"/></g><g pointer-events="all" display="none" transform="translate(91, 32)"><circle cx="8" cy="8" r="4" stroke="none" fill="red" fill-opacity="0.3"/></g><g pointer-events="all" display="none" transform="translate(91, 52)"><circle cx="8" cy="8" r="4" stroke="none" fill="red" fill-opacity="0.3"/></g><g pointer-events="all" display="none" transform="translate(17, -7)"><circle cx="8" cy="8" r="4" stroke="none" fill="red" fill-opacity="0.3"/></g><g pointer-events="all" display="none" transform="translate(42, -7)"><circle cx="8" cy="8" r="4" stroke="none" fill="red" fill-opacity="0.3"/></g><g pointer-events="all" display="none" transform="translate(67, -7)"><circle cx="8" cy="8" r="4" stroke="none" fill="red" fill-opacity="0.3"/></g><g pointer-events="all" display="none" transform="translate(42, 32)"><circle cx="8" cy="8" r="4" stroke="none" fill="red" fill-opacity="0.3"/></g></g></g></g><g id="_C7CF9177-EAE9-4B33-8956-A043B0F4D5CD" bpmn2nodeid="_53152EEC-7CAC-4C1D-AA7C-F707DF207166"><g class="stencils" transform="translate(485, 166)"><g class="me"><g pointer-events="fill" id="_C7CF9177-EAE9-4B33-8956-A043B0F4D5CD">      <defs id="_C7CF9177-EAE9-4B33-8956-A043B0F4D5CD__C7CF9177-EAE9-4B33-8956-A043B0F4D5CD_5"> 		<radialGradient id="_C7CF9177-EAE9-4B33-8956-A043B0F4D5CDbackground" cx="10%" cy="10%" r="100%" fx="10%" fy="10%"> 			<stop offset="0%" stop-color="#ffffff" stop-opacity="1" id="_C7CF9177-EAE9-4B33-8956-A043B0F4D5CD__C7CF9177-EAE9-4B33-8956-A043B0F4D5CD_6"/> 			<stop id="_C7CF9177-EAE9-4B33-8956-A043B0F4D5CDfill_el" offset="100%" stop-color="#ff6347" stop-opacity="1"/> 		</radialGradient> 	</defs> 	     <circle id="_C7CF9177-EAE9-4B33-8956-A043B0F4D5CDbg_frame" cx="14" cy="14" r="14" stroke="#000000" fill="url(#_C7CF9177-EAE9-4B33-8956-A043B0F4D5CDbackground) white" stroke-width="3"/> 	<text font-size="11" id="_C7CF9177-EAE9-4B33-8956-A043B0F4D5CDtext_name" x="14" y="30" oryx:align="top center" stroke="black" stroke-width="0pt" letter-spacing="-0.01px" fill="#000000" text-anchor="middle" transform="rotate(0 14 30)" visibility="inherit" oryx:fontSize="11"/>   </g></g><g class="children" style="overflow:hidden"/><g class="edge"/></g><g class="controls"><g class="dockers"/><g class="magnets" transform="translate(485, 166)"><g pointer-events="all" display="none" transform="translate(6, 6)"><circle cx="8" cy="8" r="4" stroke="none" fill="red" fill-opacity="0.3"/></g></g></g></g></g><g class="edge"><g id="_BC25D7FB-9952-432E-A299-4A25B854541F" bpmn2nodeid="_DD1BF7D4-C189-49BB-AFE8-B58247FEEE4C"><g class="stencils"><g class="me"><g pointer-events="painted" bpmn2nodeid="_DD1BF7D4-C189-49BB-AFE8-B58247FEEE4C"><path id="_BC25D7FB-9952-432E-A299-4A25B854541F_1" d="M150.609375 180L194.15625 180 " stroke="#000000" fill="none" stroke-width="2" stroke-linecap="round" stroke-linejoin="round" marker-start="url(#_BC25D7FB-9952-432E-A299-4A25B854541Fstart)" marker-end="url(#_BC25D7FB-9952-432E-A299-4A25B854541Fend)"/></g><text id="_BC25D7FB-9952-432E-A299-4A25B854541Ftext_name" font-size="12" x="164.609375" y="166" oryx:edgePosition="startTop" stroke-width="0pt" letter-spacing="-0.01px" fill="#000000" text-anchor="start" transform="rotate(360 150.609375 180)" visibility="inherit" oryx:fontSize="12"/></g><g class="children" style="overflow:hidden"/><g class="edge"/></g><g class="controls"><g class="dockers"/><g class="magnets"/></g></g><g id="_D5BF6C15-5D28-4E0D-A07E-7E5D9CF37B7A" bpmn2nodeid="_7B933757-0057-42F6-B23D-B2C5DD1AACEF"><g class="stencils"><g class="me"><g pointer-events="painted" bpmn2nodeid="_7B933757-0057-42F6-B23D-B2C5DD1AACEF"><path id="_D5BF6C15-5D28-4E0D-A07E-7E5D9CF37B7A_1" d="M295.84375 180L339.15625 180 " stroke="#000000" fill="none" stroke-width="2" stroke-linecap="round" stroke-linejoin="round" marker-start="url(#_D5BF6C15-5D28-4E0D-A07E-7E5D9CF37B7Astart)" marker-end="url(#_D5BF6C15-5D28-4E0D-A07E-7E5D9CF37B7Aend)"/></g><text id="_D5BF6C15-5D28-4E0D-A07E-7E5D9CF37B7Atext_name" font-size="12" x="309.84375" y="166" oryx:edgePosition="startTop" stroke-width="0pt" letter-spacing="-0.01px" fill="#000000" text-anchor="start" transform="rotate(360 295.84375 180)" visibility="inherit" oryx:fontSize="12"/></g><g class="children" style="overflow:hidden"/><g class="edge"/></g><g class="controls"><g class="dockers"/><g class="magnets"/></g></g><g id="_9FFEFFA2-EE50-4858-AB43-7A3B15E75908" bpmn2nodeid="_1857F7F2-0705-45E3-9709-9711A43800C0"><g class="stencils"><g class="me"><g pointer-events="painted" bpmn2nodeid="_1857F7F2-0705-45E3-9709-9711A43800C0"><path id="_9FFEFFA2-EE50-4858-AB43-7A3B15E75908_1" d="M440.390625 180L484.375 180 " stroke="#000000" fill="none" stroke-width="2" stroke-linecap="round" stroke-linejoin="round" marker-start="url(#_9FFEFFA2-EE50-4858-AB43-7A3B15E75908start)" marker-end="url(#_9FFEFFA2-EE50-4858-AB43-7A3B15E75908end)"/></g><text id="_9FFEFFA2-EE50-4858-AB43-7A3B15E75908text_name" font-size="12" x="454.390625" y="166" oryx:edgePosition="startTop" stroke-width="0pt" letter-spacing="-0.01px" fill="#000000" text-anchor="start" transform="rotate(360 440.390625 180)" visibility="inherit" oryx:fontSize="12"/></g><g class="children" style="overflow:hidden"/><g class="edge"/></g><g class="controls"><g class="dockers"/><g class="magnets"/></g></g></g><text id="_1EA01359-88A1-43A4-A8C9-1A2AEEB20F41" style="stroke-width:1;fill:rgb(177,194,214);font-family:arial;font-weight:bold" font-size="12" onclick="ORYX.Plugins.CanvasTitle.openTextualAnalysis()" onmouseover="ORYX.Plugins.CanvasTitle.addToolTip('_1EA01359-88A1-43A4-A8C9-1A2AEEB20F41')" transform="translate(10, 20)">HelloWorldWithTask v.1.0</text></g></g></svg>